<svg width="24" height="24" viewBox="0 0 24 24" fill="none" xmlns="http://www.w3.org/2000/svg">
<g id="Broadwalk Logo">
<g id="Group 52">
<path id="Rectangle 2868" d="M2.69444 2.69444H12C17.1393 2.69444 21.3056 6.86068 21.3056 12C21.3056 17.1393 17.1393 21.3056 12 21.3056H2.69444V2.69444Z" stroke="#141D2A" stroke-width="1.38889"/>
<path id="Rectangle 2871" d="M5.47215 2.69444H11.9999C17.1393 2.69444 21.3055 6.86068 21.3055 12C21.3055 17.1393 17.1392 21.3056 11.9999 21.3056H5.47215V2.69444Z" stroke="#141D2A" stroke-width="1.38889"/>
<path id="Vector 929" d="M2 11.9998H11.3334C13.2465 11.8058 17.7613 10.5448 19.2222 5.88867" stroke="#141D2A" stroke-width="1.38889"/>
<path id="Rectangle 2869" d="M2.69444 2.69444H7C9.37789 2.69444 11.3056 4.62211 11.3056 7V7.55555C11.3056 9.93345 9.37789 11.8611 7 11.8611H2.69444V2.69444Z" stroke="#141D2A" stroke-width="1.38889"/>
<path id="Rectangle 2870" d="M2.69444 12.1388H7C9.37789 12.1388 11.3056 14.0664 11.3056 16.4443V16.9999C11.3056 19.3778 9.37789 21.3054 7 21.3054H2.69444V12.1388Z" stroke="#141D2A" stroke-width="1.38889"/>
</g>
</g>
</svg>
