<svg width="24" height="24" viewBox="0 0 24 24" fill="none" xmlns="http://www.w3.org/2000/svg">
<g id="businessman 1" clip-path="url(#clip0_223_954)">
<g id="Group">
<g id="Group_2">
<path id="Vector" d="M7.72734 10.1756C7.94598 11.5968 9.04418 13.4056 10.848 14.0417C11.5884 14.3001 12.3984 14.3051 13.1388 14.0367C14.9128 13.3957 16.0458 11.5919 16.2694 10.1756C16.5079 10.1558 16.821 9.82283 17.1589 8.62525C17.621 6.99038 17.1291 6.74689 16.7117 6.78664C16.7912 6.56302 16.8508 6.33444 16.8906 6.11579C17.5962 1.87706 15.5091 1.73295 15.5091 1.73295C15.5091 1.73295 15.1613 1.06708 14.2519 0.565186C13.6407 0.202433 12.791 -0.0758426 11.6729 0.0185724C11.3101 0.03348 10.9673 0.108018 10.6443 0.212372C10.2318 0.35151 9.85416 0.555247 9.51128 0.793769C9.09387 1.05714 8.69633 1.38511 8.34849 1.7578C7.79691 2.32429 7.30495 3.05476 7.09128 3.96413C6.91239 4.64491 6.95214 5.35551 7.10122 6.12076C7.14097 6.34438 7.2006 6.56799 7.28011 6.79161C6.86269 6.75185 6.37074 6.99535 6.83288 8.63022C7.17575 9.82283 7.48881 10.1558 7.72734 10.1756Z" fill="#141D2A"/>
<path id="Vector_2" d="M20.1951 15.7362C17.6558 15.0902 15.5936 13.6392 15.5936 13.6392L13.9836 18.7326L13.6804 19.6917L13.6755 19.6768L13.4121 20.4917L12.5624 18.0816C14.6494 15.1697 12.14 15.1995 12.0008 15.2045C11.8617 15.1995 9.35226 15.1697 11.4393 18.0816L10.5896 20.4917L10.3262 19.6768L10.3213 19.6917L10.0181 18.7326L8.40314 13.6392C8.40314 13.6392 6.34091 15.0902 3.80165 15.7362C1.90838 16.2182 1.81893 18.4046 1.89347 19.483C1.89347 19.483 2.00279 20.9489 2.11211 21.5949C2.11211 21.5949 5.80921 23.995 12.0008 24C18.1925 24 21.8896 21.5949 21.8896 21.5949C21.9989 20.9489 22.1082 19.483 22.1082 19.483C22.1778 18.4046 22.0883 16.2182 20.1951 15.7362Z" fill="#141D2A"/>
</g>
</g>
</g>
<defs>
<clipPath id="clip0_223_954">
<rect width="24" height="24" fill="white"/>
</clipPath>
</defs>
</svg>
