<svg width="24" height="24" viewBox="0 0 24 24" fill="none" xmlns="http://www.w3.org/2000/svg">
<g id="puzzle (1) 1">
<path id="Vector" d="M21.032 5.74924V11.6241L21.0276 5.77124C21.0276 5.76244 21.0276 5.75804 21.032 5.74924Z" fill="#29293E"/>
<path id="Vector_2" d="M16.2918 14.3724C16.2918 16.1092 17.699 17.5341 19.4579 17.5341C20.0207 17.5384 20.5572 17.3933 21.0321 17.1162V22.9603C21.0321 23.079 20.9837 23.1889 20.9046 23.2682C20.821 23.3517 20.7111 23.4 20.5968 23.4L14.7483 23.3956C15.021 22.9208 15.1705 22.393 15.1705 21.8257C15.1705 20.9815 14.8363 20.1901 14.2383 19.592C13.6402 18.9939 12.8487 18.6641 12.0044 18.6641C11.1602 18.6641 10.3642 18.9939 9.76624 19.592C9.16816 20.1901 8.84276 20.9815 8.83836 21.8302C8.84276 22.3842 8.99231 22.9251 9.26048 23.4L3.40769 23.3956C3.16587 23.3956 2.97236 23.2021 2.97236 22.9603L2.96796 5.77125C2.96796 5.52938 3.16147 5.33581 3.40769 5.33581H9.26048C8.99231 4.86098 8.84276 4.32011 8.83836 3.76605C8.84276 2.91729 9.16816 2.12586 9.76624 1.52778C10.3642 0.929805 11.1602 0.600006 12.0044 0.600006C12.8487 0.600006 13.6402 0.929805 14.2383 1.52778C14.8363 2.12586 15.1705 2.91729 15.1705 3.76165C15.1705 4.32892 15.021 4.86098 14.7483 5.33581H20.5968C20.8254 5.33581 21.0189 5.51617 21.0321 5.74924V11.6241C20.5572 11.3558 20.0119 11.2063 19.4579 11.2063C17.7209 11.2107 16.3006 12.6002 16.2918 14.3724Z" fill="#29293E"/>
</g>
</svg>
