<svg width="24" height="24" viewBox="0 0 24 24" fill="none" xmlns="http://www.w3.org/2000/svg">
<g id="Icontyl Plus/Light/Bold/Lamp">
<rect width="24" height="24" fill="white"/>
<g id="Icon">
<path id="Subtract" fill-rule="evenodd" clip-rule="evenodd" d="M21.5997 9.33348C21.5997 13.0566 19.3575 16.2705 16.1143 17.7684V19.65H12.75V16.4828L14.8325 15.0128C15.1709 14.7739 15.2516 14.306 15.0127 13.9676C14.7738 13.6292 14.3059 13.5485 13.9675 13.7874L12 15.1761L10.0326 13.7874C9.69416 13.5485 9.22619 13.6292 8.98732 13.9676C8.74845 14.306 8.82913 14.7739 9.16753 15.0128L11.25 16.4828V19.65H7.88591V17.7686C4.64253 16.2707 2.40015 13.0567 2.40015 9.33348C2.40015 4.17889 6.69812 0.000274658 11.9999 0.000274658C17.3018 0.000274658 21.5997 4.17889 21.5997 9.33348ZM7.88591 21.15V21.7778C7.88591 23.0051 8.88083 24 10.1081 24H13.8921C15.1194 24 16.1143 23.0051 16.1143 21.7778V21.15H12H7.88591Z" fill="#29293E"/>
</g>
</g>
</svg>
